<svg id="ae43dacd-cc72-4ef0-b785-dfa6b3002d55" data-name="Layer 1" xmlns="http://www.w3.org/2000/svg" viewBox="0 0 2831.8 694.88"><defs><style>.f49638e2-9715-4885-9969-9df7ddd5e339{fill:#1ed760;}.b0b9bc4a-97b8-469d-8519-0a59b86c13ea{fill:#dcffee;}.b3b07376-1eb6-45f0-ae9c-6a9a70494061{fill:#fdfffe;}.bf0a7bbf-0102-4fcf-9678-95f5eb760fe8{fill:#fff;}</style></defs><title>Logo_white</title><rect class="f49638e2-9715-4885-9969-9df7ddd5e339" x="21.4" y="25.65" width="353.16" height="353.16" rx="68.13"/><path class="b0b9bc4a-97b8-469d-8519-0a59b86c13ea" d="M206.77,282.18H188.51a12,12,0,0,1-11.3-7.92L145.45,187a1.61,1.61,0,0,0-3,0l-31.87,88.31a10.41,10.41,0,0,1-9.77,6.86H79a10.39,10.39,0,0,1-9.77-13.91l36.28-100.52,13.75-38.08a12.69,12.69,0,0,1,11.52-7.38h26.09a12.69,12.69,0,0,1,11.9,8.29l1.54,4.16,12,33L218.07,266A12,12,0,0,1,206.77,282.18Z"/><path class="b0b9bc4a-97b8-469d-8519-0a59b86c13ea" d="M181.59,167.75H105.8l13-37.11c.12-.33.25-.65.4-1a12.69,12.69,0,0,1,11.52-7.38h26.09a12.69,12.69,0,0,1,11.9,8.29l1.54,4.16Z"/><path class="b3b07376-1eb6-45f0-ae9c-6a9a70494061" d="M315.33,282.18H297.07a12,12,0,0,1-11.31-7.92L254,187a1.61,1.61,0,0,0-3,0l-31.87,88.31a10.41,10.41,0,0,1-9.78,6.86H187.54a10.39,10.39,0,0,1-9.77-13.91l36.28-100.52,13.75-38.08a12.69,12.69,0,0,1,11.52-7.38h26.09a12.69,12.69,0,0,1,11.9,8.29l1.54,4.16,12,33L326.63,266A12,12,0,0,1,315.33,282.18Z"/><path class="b3b07376-1eb6-45f0-ae9c-6a9a70494061" d="M290.6,167.75H214.36l13-37.11c.12-.33.25-.65.4-1a12.69,12.69,0,0,1,11.52-7.38h26.09a12.69,12.69,0,0,1,11.9,8.29l1.54,4.16Z"/><path class="f49638e2-9715-4885-9969-9df7ddd5e339" d="M737.34,327.84a14.5,14.5,0,0,0,4.44,6.38,28.46,28.46,0,0,0,9.33,4.24c4.24,1.25,10.18,1.89,17.66,1.89s13.62-.77,18.4-2.27c8.51-2.69,12.83-12.57,12.83-29.37V82.84a120.2,120.2,0,0,0-.58-13.77A29.26,29.26,0,0,0,796,59.38l0,0c-3-5.86-12.79-9-28.2-9-15.77,0-25.72,3.11-29.57,9.23l-.24.33c-15.37,19.42-46.43,60.06-92.32,120.8l-3,4-95.24-125-2.45-2.47c-.54-.62-2.45-2.28-8.72-4.38a56.89,56.89,0,0,0-17.73-2.45c-15.35,0-25.2,3-28.48,8.7a28.71,28.71,0,0,0-3.4,9.39A116.21,116.21,0,0,0,486,82V307.89a124.19,124.19,0,0,0,.59,14.18,25.1,25.1,0,0,0,3.39,9.18c3.36,6.05,12.66,9.1,27.66,9.1,15.33,0,25.17-3.13,28.46-9.06a25.52,25.52,0,0,0,3.42-9,116.45,116.45,0,0,0,.58-13.55V161.13l6.66,8c.9,1.08,4.6,6,26.2,35.8,15.92,22,26.7,36.53,32,43.2l.1.13,3.21,4.41c1.86,2.31,5.11,4.78,9.65,7.35a29.63,29.63,0,0,0,14.82,3.79A29.06,29.06,0,0,0,658,259.68c6.6-3.89,8.42-5.75,8.9-6.38,1.35-1.76,3.8-4.94,7.32-9.55s11.86-16.16,24.75-34.29c13-18.29,23-31.84,29.84-40.26l6.7-8.3v147C735.5,316.9,736.12,323.61,737.34,327.84Z"/><path class="f49638e2-9715-4885-9969-9df7ddd5e339" d="M1017.69,159.46c-21.7-20.26-47-30.53-75.16-30.53s-53.6,10.34-75.57,30.74-33,46.5-33,77.82c0,20.85,5.61,39.79,16.66,56.3s25,29.36,41.15,37.83a107.58,107.58,0,0,0,50.34,12.79,112.07,112.07,0,0,0,50.21-12c16-7.93,29.82-20.5,41.07-37.37s16.87-36.29,16.87-57.94C1050.28,205.76,1039.31,179.65,1017.69,159.46ZM970.85,269.38c-9.57,7.26-19.38,10.94-29.13,10.94s-19.43-3.61-28.74-10.74c-9.62-7.37-14.5-18.37-14.5-32.7s4.72-25.34,14-32.85c9.06-7.3,19-11,29.63-11s20.52,3.55,29.57,10.55c9.34,7.24,14.08,18.23,14.08,32.69S980.76,261.89,970.85,269.38Z"/><path class="f49638e2-9715-4885-9969-9df7ddd5e339" d="M1222.46,138.71a29.51,29.51,0,0,0-9.59-3.5,111.77,111.77,0,0,0-13.34-.58c-5.93,0-14.92.54-26.73,1.61l-4.1.37v-44c0-9-.63-15.66-1.86-19.64-2.89-8.19-12.79-12.41-29.38-12.41-15.54,0-25.22,2.82-28,8.15l-.13.24a22.05,22.05,0,0,0-3.35,8.3,110.77,110.77,0,0,0-.57,13.33v46.16L1088,134.63c-5.53,0-10,1.47-13.61,4.39-1.85,1.69-3.37,4.68-4.5,8.9-1.27,4.67-1.91,12.49-1.91,23.23,0,10.16,1.68,17.28,5,21.16a15,15,0,0,0,12,5.6,105.19,105.19,0,0,0,16.1-1.17l4.35-.69v64.63c0,29.11,7,49.93,20.68,61.87,13.87,12.08,34.68,18.2,61.83,18.2a109,109,0,0,0,13.14-.58,33.89,33.89,0,0,0,9.68-3.13c6.09-3.05,9.22-12.46,9.22-27.93,0-12.93-2.57-21.23-7.44-24a25.43,25.43,0,0,0-9.39-3.4,128.22,128.22,0,0,0-14.19-.59c-7.65,0-13.07-2.17-16.1-6.47-2.79-3.94-4.15-9.84-4.15-18.05V196.45l30.33,1.87a116.66,116.66,0,0,0,13.44-.58,34.36,34.36,0,0,0,9.6-3.1c5.82-3.07,8.89-12.74,8.89-28C1231,151.16,1228,141.49,1222.46,138.71Z"/><path class="f49638e2-9715-4885-9969-9df7ddd5e339" d="M1462.91,332.25a29.49,29.49,0,0,0,3.51-9.59,116.48,116.48,0,0,0,.57-13.55V237.49c0-28.76-8.79-53.39-26.12-73.22-17.22-19.67-39.07-29.64-64.93-29.64-17.15,0-31.77,7.67-44.71,23.45l-6.67,8.14V65.75a116.52,116.52,0,0,0-.58-13.56,29.25,29.25,0,0,0-3.46-9.49l-.07-.14c-2.78-5.79-12.31-8.85-27.53-8.85-15.54,0-25.36,3.09-28.4,8.95a29.72,29.72,0,0,0-3.07,9.13,117,117,0,0,0-.57,13.55V308.71a115.91,115.91,0,0,0,.57,13.74,34.41,34.41,0,0,0,3.1,9.41c3.08,5.82,12.74,8.89,28,8.89,15.52,0,25.19-2.94,28-8.5a29.43,29.43,0,0,0,3.5-9.59,116,116,0,0,0,.58-13.55V229.89l0-.28c1.22-8.26,5.93-15.71,14-22.13a43.5,43.5,0,0,1,27.78-9.57c10.61,0,19.51,3.52,26.46,10.46s10.47,16.61,10.47,28.71V308.3a125.9,125.9,0,0,0,.58,14.19,28.8,28.8,0,0,0,3.45,9.67c3.26,5.67,12.58,8.59,27.61,8.59C1450.47,340.75,1460.14,337.81,1462.91,332.25Z"/><path class="f49638e2-9715-4885-9969-9df7ddd5e339" d="M1693.06,167.52c-16.81-25.33-43.68-38.18-79.87-38.18-32,0-59,10-80.26,29.72s-32,46.31-32,79.24c0,26.15,8.35,50.16,24.84,71.35,8.28,10.87,20,19.72,35,26.34s32.54,10.05,52,10.05c55,0,82.92-10.92,82.92-32.45,0-4.56-1.66-10.31-4.92-17.09-5.48-10.71-11.88-16.18-19-16.18-3.77,0-8.72,1.39-14.7,4.14l-.29.11-4.48,1.63c-9.32,3.39-22.21,5.11-38.32,5.11-9.58,0-19.25-2.77-28.73-8.24-10.16-5.84-15.32-13.38-15.32-22.39v-3.76h100.21c9.11,0,17.24-3.58,24.85-11,7.48-7.22,11.27-18.77,11.27-34.32A79.43,79.43,0,0,0,1693.06,167.52Zm-68.88,59.9h-55v-3.77c0-9.28,4.84-18,14.38-25.89,9.35-7.73,19-11.65,28.65-11.65s17.29,2.19,22.7,6.52a22.06,22.06,0,0,1,8.54,18C1643.41,216.9,1640.91,227.42,1624.18,227.42Z"/><path class="f49638e2-9715-4885-9969-9df7ddd5e339" d="M1804.36,309.11V223.65c0-8.48,3.69-15.77,11-21.65,7-5.68,14.75-8.57,22.92-8.57,7.86,0,14.37,1.23,19.34,3.64A28.21,28.21,0,0,0,1870,200c8.29,0,14.51-4.38,19-13.39,4.86-9.74,7.33-18.75,7.33-26.8,0-7.71-1.41-13.25-4.17-16.47a23.78,23.78,0,0,0-11.11-7.21h0a96.46,96.46,0,0,0-13.69-3.33,104.53,104.53,0,0,0-15.49-1c-5.7,0-12.56,2.17-20.37,6.46-10,5.49-14,8.62-15.56,10.28a63.64,63.64,0,0,0-5.57,6.51l-6.83,9.54V152.84a19.57,19.57,0,0,0-3.81-11.3c-3.32-5.08-12.78-7.72-27.42-7.72-15.54,0-25.36,3.09-28.4,9a30,30,0,0,0-3.07,9.14,116.72,116.72,0,0,0-.57,13.55V320c.47,6.74,2.5,11.71,6,14.79,4.87,3.95,13.52,6,25.6,6,15.36,0,25.2-3,28.48-8.69a29,29,0,0,0,3.4-9.39A116.17,116.17,0,0,0,1804.36,309.11Z"/><path class="f49638e2-9715-4885-9969-9df7ddd5e339" d="M2070.55,138.71a29.59,29.59,0,0,0-9.59-3.5,111.77,111.77,0,0,0-13.34-.58c-5.93,0-14.92.54-26.73,1.61l-4.1.37v-44c0-9-.63-15.66-1.87-19.64-2.88-8.19-12.78-12.41-29.37-12.41-15.54,0-25.22,2.82-28,8.15l-.13.24a22.05,22.05,0,0,0-3.35,8.3,111,111,0,0,0-.58,13.33v46.16l-17.41-2.11c-5.53,0-10,1.47-13.61,4.39-1.85,1.68-3.37,4.68-4.51,8.9-1.26,4.66-1.9,12.48-1.9,23.23,0,10.16,1.68,17.28,5,21.16a15,15,0,0,0,12,5.6,105.06,105.06,0,0,0,16.09-1.17l4.35-.69v64.63c0,29.11,7,49.92,20.69,61.87s34.68,18.2,61.83,18.2a109,109,0,0,0,13.14-.58,33.89,33.89,0,0,0,9.68-3.13c6.09-3.05,9.22-12.46,9.22-27.93,0-12.93-2.57-21.23-7.44-24a25.5,25.5,0,0,0-9.39-3.4,128.3,128.3,0,0,0-14.2-.59c-7.64,0-13.06-2.17-16.09-6.47-2.79-3.94-4.15-9.84-4.15-18.05V196.45l30.33,1.87a116.66,116.66,0,0,0,13.44-.58,34.36,34.36,0,0,0,9.6-3.1c5.82-3.07,8.89-12.74,8.89-28C2079.05,151.16,2076.11,141.49,2070.55,138.71Z"/><path class="f49638e2-9715-4885-9969-9df7ddd5e339" d="M2102.86,237.49c0,20.85,5.6,39.79,16.65,56.3s25,29.36,41.15,37.83A107.62,107.62,0,0,0,2211,344.41a112.1,112.1,0,0,0,50.21-12c16-7.92,29.82-20.5,41.06-37.37s16.87-36.29,16.87-57.94c0-31.31-11-57.43-32.58-77.62s-47-30.53-75.16-30.53-53.61,10.34-75.58,30.74h0C2114,180,2102.86,206.18,2102.86,237.49ZM2181.38,204c9.06-7.3,19-11,29.63-11s20.51,3.55,29.56,10.55c9.35,7.24,14.08,18.23,14.08,32.69s-5,25.62-14.92,33.11c-9.58,7.26-19.38,10.94-29.13,10.94s-19.44-3.61-28.74-10.74c-9.63-7.37-14.5-18.37-14.5-32.7S2172.07,211.53,2181.38,204Z"/><path class="f49638e2-9715-4885-9969-9df7ddd5e339" d="M2559.66,237.08c0-28.77-8.8-53.47-26.14-73.43-17.22-19.8-39.06-29.83-64.92-29.83a49.82,49.82,0,0,0-28.41,8.71l-.14.09a68.42,68.42,0,0,0-10.4,8.1c-4.6,4.26-6.11,6.36-6.61,7.24l-7,12.4V156.1a28.83,28.83,0,0,0-3.55-14.78c-2.07-3.4-8.51-7.5-27.28-7.5-15.33,0-25,2.85-28,8.24a25.55,25.55,0,0,0-3.43,9,112,112,0,0,0-.57,13.15V308.3a116.72,116.72,0,0,0,.57,13.55,33.9,33.9,0,0,0,3.11,9.6c3.07,5.82,12.74,8.9,28,8.9,15.49,0,25.15-3.06,27.94-8.86l.12-.24a25.55,25.55,0,0,0,3.41-9,116.72,116.72,0,0,0,.57-13.55v-72c0-11.58,3.74-21.11,11.11-28.32s17-10.85,28.67-10.85,21.2,3.51,28.28,10.44,10.69,16.62,10.69,28.73V308.3c0,8.75.75,15.31,2.23,19.5l.06.18c2.43,8.21,12.45,12.37,29.76,12.37,15.54,0,25.36-3.1,28.4-9a29.79,29.79,0,0,0,3.07-9.13,116,116,0,0,0,.58-13.55Z"/><path class="f49638e2-9715-4885-9969-9df7ddd5e339" d="M2638.45,418.52a120,120,0,0,0,57.23,14.61c26.06,0,49.86-9.34,70.76-27.75s31.28-42.74,31.28-72.67V164.24a110.66,110.66,0,0,0-.57-13.33,29.53,29.53,0,0,0-3.28-9.16c-1.58-3.06-4.27-5.18-8.22-6.5-4.47-1.49-11.88-2.25-22-2.25-9.63,0-16.56,1.7-20.59,5s-6.29,8.15-7,14.79l-1.11,10.36-5.77-8.67a50,50,0,0,0-6.24-7.36c-2.5-2.5-7.39-5.38-14.54-8.58a57.79,57.79,0,0,0-23.7-4.76c-22.42,0-43.41,10.14-62.38,30.16s-28.67,43.7-28.67,70.25,9.58,50.13,28.47,70,39.2,30,60.55,30c21.17,0,36.73-6.35,46.24-18.86l6.76-8.9v23.39c0,12.22-3.56,22.87-10.59,31.65-7.23,9-16.71,13.62-28.17,13.62-16,0-31-5.33-44.62-15.83-3.42-2.74-6.6-4.11-9.5-4.11a12.23,12.23,0,0,0-7.69,2.49c-2.67,2-6.53,5.83-11.49,11.33l-.14.14c-7.47,7.46-11.1,15.78-11.1,25.41C2612.36,398.29,2615.75,406.35,2638.45,418.52Zm84-157.95a35.56,35.56,0,0,1-27.41,12,37.78,37.78,0,0,1-27.92-11.71c-7.6-7.75-11.45-16.65-11.45-26.44s3.6-18.72,10.72-26.72,16.79-12.25,28.45-12.25S2716,199.69,2723,208c6.79,8.13,10.23,17,10.23,26.43S2729.61,252.71,2722.48,260.57Z"/><path class="bf0a7bbf-0102-4fcf-9678-95f5eb760fe8" d="M1841.47,588.94q5.49,7.23,5.5,18.06,0,15.27-10,23.4t-28.4,8.12h-41.38a6.92,6.92,0,0,1-5-1.8,6.27,6.27,0,0,1-1.89-4.76V529.34a6.29,6.29,0,0,1,1.89-4.76,6.93,6.93,0,0,1,5-1.81h39.57q17.9,0,27.75,7.89t9.85,22.32a26.85,26.85,0,0,1-4.84,16.09,28.64,28.64,0,0,1-13.55,10Q1836,581.72,1841.47,588.94Zm-67.89-14.78h31.19q13,0,19.62-5.25t6.65-15.27q0-19.7-26.27-19.7h-31.19Zm53.77,48.19q6.48-5,6.48-15.68,0-21.33-26.59-21.34h-33.66v42h33.66Q1820.86,627.36,1827.35,622.35Z"/><path class="bf0a7bbf-0102-4fcf-9678-95f5eb760fe8" d="M1932.34,557.09a6.78,6.78,0,0,1,4.44,1.64,5.36,5.36,0,0,1,1.31,6.73L1892,665a6.27,6.27,0,0,1-2.38,2.79,5.9,5.9,0,0,1-3.2,1,6.68,6.68,0,0,1-4.35-1.55,5,5,0,0,1-1.89-4,5.78,5.78,0,0,1,.66-2.62l11.49-24.8-32.51-70.27a4.82,4.82,0,0,1-.65-2.46,5.4,5.4,0,0,1,2.21-4.27,7.53,7.53,0,0,1,4.85-1.81,5.91,5.91,0,0,1,3.2,1,6.33,6.33,0,0,1,2.38,2.79l27.42,61.57L1926.6,561A6,6,0,0,1,1932.34,557.09Z"/><path class="bf0a7bbf-0102-4fcf-9678-95f5eb760fe8" d="M1999.58,636.8a5.81,5.81,0,0,1-1.89-4.51V528.85a7,7,0,0,1,1.8-5,7.36,7.36,0,0,1,9.85,0,6.93,6.93,0,0,1,1.81,5V627h53a6.63,6.63,0,0,1,4.6,1.48,6.38,6.38,0,0,1,0,8.54,6.67,6.67,0,0,1-4.6,1.47h-59.93A6.64,6.64,0,0,1,1999.58,636.8Z"/><path class="bf0a7bbf-0102-4fcf-9678-95f5eb760fe8" d="M2097.43,634.58a33.85,33.85,0,0,1-13.3-14.53,53.65,53.65,0,0,1,0-43.83,33.85,33.85,0,0,1,13.3-14.53,38.45,38.45,0,0,1,20-5.09,38.87,38.87,0,0,1,20,5.09,33.72,33.72,0,0,1,13.38,14.53,53.65,53.65,0,0,1,0,43.83,33.72,33.72,0,0,1-13.38,14.53,38.87,38.87,0,0,1-20,5.09A38.45,38.45,0,0,1,2097.43,634.58Zm38.09-13.71q6.32-7.79,6.32-22.73,0-14.62-6.4-22.58t-18.06-8q-11.65,0-18.06,8t-6.41,22.58q0,14.77,6.33,22.65t18.14,7.88Q2129.2,628.67,2135.52,620.87Z"/><path class="bf0a7bbf-0102-4fcf-9678-95f5eb760fe8" d="M2245.11,558.73a6.42,6.42,0,0,1,1.81,4.76v69.62q0,17.89-9.2,27t-27.25,9.11q-17.56,0-29.22-6.9-5.92-3.29-5.92-7.55a5.71,5.71,0,0,1,1.24-3.78,4,4,0,0,1,3.2-1.47q1.64,0,5.91,2.29a76.22,76.22,0,0,0,11.33,4.77,43.53,43.53,0,0,0,13.3,1.8q11.66,0,17.56-6.16t5.91-18V620.14A25,25,0,0,1,2223.19,632a33.24,33.24,0,0,1-16.82,4.1,35.28,35.28,0,0,1-18.64-4.92,33.34,33.34,0,0,1-12.64-14,50.35,50.35,0,0,1,0-41.7,33.34,33.34,0,0,1,12.64-14,35.28,35.28,0,0,1,18.64-4.92,32.49,32.49,0,0,1,16.58,4.1,26.34,26.34,0,0,1,10.67,11.66v-8.87a6.61,6.61,0,0,1,1.72-4.76,6.41,6.41,0,0,1,4.85-1.81A6.65,6.65,0,0,1,2245.11,558.73Zm-18.06,58.7q6.57-7.63,6.57-21.1,0-13.3-6.49-20.93T2209,567.76q-11.65,0-18.3,7.64T2184,596.33q0,13.47,6.65,21.1t18.3,7.63Q2220.48,625.06,2227.05,617.43Z"/><path class="bf0a7bbf-0102-4fcf-9678-95f5eb760fe8" d="M2347.24,628.67a5.27,5.27,0,0,1,1.64,4.11q0,5.75-6.24,5.74h-64.36a6.38,6.38,0,0,1-4.6-1.72,5.58,5.58,0,0,1-1.8-4.19,7.41,7.41,0,0,1,2.29-5.41l39.57-43.51q8.21-9.2,11.91-16.5a32.32,32.32,0,0,0,3.69-14.7q0-9.53-5.5-14.61t-15.51-5.09a40.63,40.63,0,0,0-15.11,2.87,55.46,55.46,0,0,0-14.45,8.79,7.57,7.57,0,0,1-4.6,2,3.86,3.86,0,0,1-3.12-1.73,6.72,6.72,0,0,1-1.31-4.18,6.88,6.88,0,0,1,2.63-5.59,49.2,49.2,0,0,1,16.42-9.85,56.57,56.57,0,0,1,19.86-3.61q15.6,0,24.88,8.21t9.27,22.16a43,43,0,0,1-4.51,19.21q-4.51,9.21-14.86,20.53l-32.84,35.63h52A6.67,6.67,0,0,1,2347.24,628.67Z"/><path class="bf0a7bbf-0102-4fcf-9678-95f5eb760fe8" d="M2453.22,588.94q5.49,7.23,5.5,18.06,0,15.27-10,23.4t-28.4,8.12h-41.38a7,7,0,0,1-5-1.8A6.3,6.3,0,0,1,2372,632V529.34a6.32,6.32,0,0,1,1.88-4.76,7,7,0,0,1,5-1.81h39.57q17.9,0,27.75,7.89t9.85,22.32a26.85,26.85,0,0,1-4.84,16.09,28.64,28.64,0,0,1-13.55,10Q2447.72,581.72,2453.22,588.94Zm-67.89-14.78h31.19q13,0,19.62-5.25t6.65-15.27q0-19.7-26.27-19.7h-31.19Zm53.77,48.19q6.48-5,6.48-15.68,0-21.33-26.6-21.34h-33.65v42H2419Q2432.62,627.36,2439.1,622.35Z"/><path class="bf0a7bbf-0102-4fcf-9678-95f5eb760fe8" d="M2543.44,588.12v44.66a6.6,6.6,0,0,1-1.73,4.76,6.18,6.18,0,0,1-4.68,1.81,6.22,6.22,0,0,1-6.57-6.57V624.9a23.55,23.55,0,0,1-9.52,10.92,28.07,28.07,0,0,1-14.77,3.85,32.36,32.36,0,0,1-14.21-3.12,25.27,25.27,0,0,1-10.26-8.7,21.46,21.46,0,0,1-3.77-12.31q0-9,4.59-14t15.11-7.22q10.5-2.22,29.22-2.22h3.61v-5.42q0-9.84-4-14.45t-13.05-4.59a48.23,48.23,0,0,0-22.66,6.07q-4.42,2.79-6.24,2.79a4.21,4.21,0,0,1-3.28-1.47,5.47,5.47,0,0,1-1.31-3.78,6.2,6.2,0,0,1,1.39-4,16.29,16.29,0,0,1,4.52-3.53,52.83,52.83,0,0,1,13.05-5.18,58.24,58.24,0,0,1,14.53-1.88Q2543.44,556.6,2543.44,588.12Zm-19.3,34.4q6.33-6.66,6.32-17.16V600.6h-2.95q-14.45,0-22,1.23t-10.76,4.1q-3.2,2.88-3.2,8.46a13.59,13.59,0,0,0,4.68,10.59,17,17,0,0,0,11.74,4.19A21.33,21.33,0,0,0,2524.14,622.52Z"/><path class="bf0a7bbf-0102-4fcf-9678-95f5eb760fe8" d="M2580.29,637.87a43.89,43.89,0,0,1-12.06-5.09,16.28,16.28,0,0,1-4.19-3.7,7,7,0,0,1-1.23-4.18,5.15,5.15,0,0,1,1.23-3.53,4.07,4.07,0,0,1,3.2-1.4c1.32,0,3.23.82,5.75,2.46a54.58,54.58,0,0,0,9.77,4.68,36.32,36.32,0,0,0,12.07,1.73q8.86,0,13.79-3.12a10.06,10.06,0,0,0,4.92-9,9,9,0,0,0-1.8-5.83,15,15,0,0,0-6.24-3.94,89.52,89.52,0,0,0-13-3.53q-14.46-3.12-20.69-8.37t-6.24-14.29a20.68,20.68,0,0,1,3.94-12.48,26.56,26.56,0,0,1,10.92-8.53,38.41,38.41,0,0,1,15.84-3.12,44.63,44.63,0,0,1,12.4,1.72,37.26,37.26,0,0,1,10.59,4.84q5.58,3.95,5.58,8.21a5.28,5.28,0,0,1-1.31,3.62,4.07,4.07,0,0,1-3.12,1.47q-2,0-5.91-2.79a52.87,52.87,0,0,0-8.7-4.6,27.69,27.69,0,0,0-10.18-1.64q-7.72,0-12.4,3.45a10.86,10.86,0,0,0-4.68,9.2,9.26,9.26,0,0,0,1.72,5.82,14.27,14.27,0,0,0,5.75,3.94,66.43,66.43,0,0,0,11.58,3.37q11.16,2.46,17.32,5.42t8.78,7.22a20.4,20.4,0,0,1,2.63,10.84q0,10.34-8.7,16.66t-23,6.32A56.08,56.08,0,0,1,2580.29,637.87Z"/><path class="bf0a7bbf-0102-4fcf-9678-95f5eb760fe8" d="M2711.56,621.45a5.44,5.44,0,0,1,1.31,3.78q0,4.1-5.74,7.55a49.65,49.65,0,0,1-12.48,5.17,50.33,50.33,0,0,1-12.81,1.72q-18.56,0-29.3-11t-10.76-30.37a47.77,47.77,0,0,1,4.76-21.76,35.6,35.6,0,0,1,13.38-14.69,37,37,0,0,1,19.62-5.25q15.6,0,24.8,10.18t9.19,27.58q0,3.28-1.31,4.76a5.44,5.44,0,0,1-4.27,1.48h-52.87q1.49,28.24,26.76,28.24a31.32,31.32,0,0,0,11-1.73,71.2,71.2,0,0,0,9.85-4.68q4.28-2.46,5.75-2.46A4,4,0,0,1,2711.56,621.45Zm-48.68-47.94q-6.33,6.57-7.47,18.55h46.46q-.33-12.15-6.07-18.63t-16.09-6.49Q2669.2,566.94,2662.88,573.51Z"/><path class="bf0a7bbf-0102-4fcf-9678-95f5eb760fe8" d="M2808.76,628.67a5.27,5.27,0,0,1,1.64,4.11q0,5.75-6.24,5.74H2739.8a6.4,6.4,0,0,1-4.6-1.72,5.58,5.58,0,0,1-1.8-4.19,7.41,7.41,0,0,1,2.29-5.41l39.57-43.51q8.22-9.2,11.91-16.5a32.32,32.32,0,0,0,3.69-14.7q0-9.53-5.5-14.61t-15.51-5.09a40.63,40.63,0,0,0-15.11,2.87,55.46,55.46,0,0,0-14.45,8.79,7.57,7.57,0,0,1-4.6,2,3.83,3.83,0,0,1-3.11-1.73,6.67,6.67,0,0,1-1.32-4.18,6.88,6.88,0,0,1,2.63-5.59,49.2,49.2,0,0,1,16.42-9.85,56.57,56.57,0,0,1,19.86-3.61q15.6,0,24.88,8.21t9.27,22.16a43,43,0,0,1-4.51,19.21q-4.51,9.21-14.86,20.53l-32.84,35.63h52A6.67,6.67,0,0,1,2808.76,628.67Z"/></svg>